<mxfile host="Electron" agent="Mozilla/5.0 (Windows NT 10.0; Win64; x64) AppleWebKit/537.36 (KHTML, like Gecko) draw.io/27.0.2 Chrome/134.0.6998.205 Electron/35.3.0 Safari/537.36" version="27.0.2">
  <diagram name="Страница — 1" id="9yrZJAoeBdNEfrwg_dwL">
    <mxGraphModel dx="4168" dy="2504" grid="1" gridSize="10" guides="1" tooltips="1" connect="1" arrows="1" fold="1" page="1" pageScale="1" pageWidth="827" pageHeight="1169" math="0" shadow="0">
      <root>
        <mxCell id="0" />
        <mxCell id="1" parent="0" />
        <mxCell id="CIOtgsL6T6jgoitxt4nJ-15" style="edgeStyle=orthogonalEdgeStyle;rounded=0;orthogonalLoop=1;jettySize=auto;html=1;startArrow=block;startFill=1;endArrow=none;" edge="1" parent="1" source="CIOtgsL6T6jgoitxt4nJ-1">
          <mxGeometry relative="1" as="geometry">
            <mxPoint x="324.9999999999999" y="440" as="targetPoint" />
          </mxGeometry>
        </mxCell>
        <mxCell id="CIOtgsL6T6jgoitxt4nJ-21" style="edgeStyle=orthogonalEdgeStyle;rounded=0;orthogonalLoop=1;jettySize=auto;html=1;" edge="1" parent="1" source="CIOtgsL6T6jgoitxt4nJ-1">
          <mxGeometry relative="1" as="geometry">
            <mxPoint x="540" y="245" as="targetPoint" />
          </mxGeometry>
        </mxCell>
        <mxCell id="CIOtgsL6T6jgoitxt4nJ-1" value="&lt;font face=&quot;Helvetica&quot; style=&quot;font-size: 12px;&quot;&gt;Создание приложения для автоматизации&amp;nbsp;&lt;span style=&quot;line-height: 107%;&quot;&gt;контроля&lt;br&gt;учебной деятельности студентов и выявление студентов-лидеров&lt;/span&gt;&lt;/font&gt;" style="rounded=0;whiteSpace=wrap;html=1;" vertex="1" parent="1">
          <mxGeometry x="230" y="190" width="190" height="110" as="geometry" />
        </mxCell>
        <mxCell id="CIOtgsL6T6jgoitxt4nJ-2" value="" style="endArrow=classic;html=1;rounded=0;edgeStyle=orthogonalEdgeStyle;entryX=0.5;entryY=0;entryDx=0;entryDy=0;" edge="1" parent="1" target="CIOtgsL6T6jgoitxt4nJ-1">
          <mxGeometry width="50" height="50" relative="1" as="geometry">
            <mxPoint x="420" y="100" as="sourcePoint" />
            <mxPoint x="330" y="160" as="targetPoint" />
            <Array as="points">
              <mxPoint x="325" y="100" />
            </Array>
          </mxGeometry>
        </mxCell>
        <mxCell id="CIOtgsL6T6jgoitxt4nJ-3" value="" style="endArrow=none;html=1;rounded=0;" edge="1" parent="1">
          <mxGeometry width="50" height="50" relative="1" as="geometry">
            <mxPoint x="325" y="130" as="sourcePoint" />
            <mxPoint x="420" y="130" as="targetPoint" />
            <Array as="points">
              <mxPoint x="365" y="130" />
            </Array>
          </mxGeometry>
        </mxCell>
        <mxCell id="CIOtgsL6T6jgoitxt4nJ-4" value="Куратор" style="text;html=1;align=center;verticalAlign=middle;resizable=0;points=[];autosize=1;strokeColor=none;fillColor=none;" vertex="1" parent="1">
          <mxGeometry x="330" y="100" width="70" height="30" as="geometry" />
        </mxCell>
        <mxCell id="CIOtgsL6T6jgoitxt4nJ-6" value="" style="endArrow=none;html=1;rounded=0;" edge="1" parent="1">
          <mxGeometry width="50" height="50" relative="1" as="geometry">
            <mxPoint x="325" y="160" as="sourcePoint" />
            <mxPoint x="420" y="160" as="targetPoint" />
            <Array as="points">
              <mxPoint x="365" y="160" />
            </Array>
          </mxGeometry>
        </mxCell>
        <mxCell id="CIOtgsL6T6jgoitxt4nJ-10" value="ТЗ" style="text;html=1;align=center;verticalAlign=middle;resizable=0;points=[];autosize=1;strokeColor=none;fillColor=none;" vertex="1" parent="1">
          <mxGeometry x="340" y="130" width="40" height="30" as="geometry" />
        </mxCell>
        <mxCell id="CIOtgsL6T6jgoitxt4nJ-13" value="" style="endArrow=classic;html=1;rounded=0;entryX=0;entryY=0.5;entryDx=0;entryDy=0;" edge="1" parent="1" target="CIOtgsL6T6jgoitxt4nJ-1">
          <mxGeometry width="50" height="50" relative="1" as="geometry">
            <mxPoint x="90" y="245" as="sourcePoint" />
            <mxPoint x="180" y="220" as="targetPoint" />
          </mxGeometry>
        </mxCell>
        <mxCell id="CIOtgsL6T6jgoitxt4nJ-14" value="Идея творческого&lt;div&gt;проекта&lt;/div&gt;" style="text;html=1;align=center;verticalAlign=middle;resizable=0;points=[];autosize=1;strokeColor=none;fillColor=none;" vertex="1" parent="1">
          <mxGeometry x="100" y="200" width="120" height="40" as="geometry" />
        </mxCell>
        <mxCell id="CIOtgsL6T6jgoitxt4nJ-16" value="" style="endArrow=none;html=1;rounded=0;" edge="1" parent="1">
          <mxGeometry width="50" height="50" relative="1" as="geometry">
            <mxPoint x="325" y="360" as="sourcePoint" />
            <mxPoint x="405" y="360" as="targetPoint" />
          </mxGeometry>
        </mxCell>
        <mxCell id="CIOtgsL6T6jgoitxt4nJ-17" value="" style="endArrow=none;html=1;rounded=0;" edge="1" parent="1">
          <mxGeometry width="50" height="50" relative="1" as="geometry">
            <mxPoint x="325" y="440" as="sourcePoint" />
            <mxPoint x="405" y="440" as="targetPoint" />
          </mxGeometry>
        </mxCell>
        <mxCell id="CIOtgsL6T6jgoitxt4nJ-18" value="" style="endArrow=none;html=1;rounded=0;" edge="1" parent="1">
          <mxGeometry width="50" height="50" relative="1" as="geometry">
            <mxPoint x="325" y="400" as="sourcePoint" />
            <mxPoint x="405" y="400" as="targetPoint" />
          </mxGeometry>
        </mxCell>
        <mxCell id="CIOtgsL6T6jgoitxt4nJ-19" value="Студент" style="text;html=1;align=center;verticalAlign=middle;resizable=0;points=[];autosize=1;strokeColor=none;fillColor=none;" vertex="1" parent="1">
          <mxGeometry x="330" y="330" width="70" height="30" as="geometry" />
        </mxCell>
        <mxCell id="CIOtgsL6T6jgoitxt4nJ-20" value="&lt;span style=&quot;text-wrap-mode: wrap;&quot;&gt;Ноутбук&lt;/span&gt;" style="text;html=1;align=center;verticalAlign=middle;resizable=0;points=[];autosize=1;strokeColor=none;fillColor=none;" vertex="1" parent="1">
          <mxGeometry x="330" y="368" width="70" height="30" as="geometry" />
        </mxCell>
        <mxCell id="CIOtgsL6T6jgoitxt4nJ-22" value="Готовый творческий&amp;nbsp;&lt;div&gt;проект&lt;/div&gt;" style="text;html=1;align=center;verticalAlign=middle;resizable=0;points=[];autosize=1;strokeColor=none;fillColor=none;" vertex="1" parent="1">
          <mxGeometry x="414" y="203" width="140" height="40" as="geometry" />
        </mxCell>
        <mxCell id="CIOtgsL6T6jgoitxt4nJ-24" style="edgeStyle=orthogonalEdgeStyle;rounded=0;orthogonalLoop=1;jettySize=auto;html=1;startArrow=block;startFill=1;endArrow=none;" edge="1" parent="1" source="CIOtgsL6T6jgoitxt4nJ-23">
          <mxGeometry relative="1" as="geometry">
            <mxPoint x="760" y="250" as="targetPoint" />
          </mxGeometry>
        </mxCell>
        <mxCell id="CIOtgsL6T6jgoitxt4nJ-26" style="edgeStyle=orthogonalEdgeStyle;rounded=0;orthogonalLoop=1;jettySize=auto;html=1;startArrow=block;startFill=1;endArrow=none;" edge="1" parent="1" source="CIOtgsL6T6jgoitxt4nJ-23">
          <mxGeometry relative="1" as="geometry">
            <mxPoint x="1070" y="390" as="targetPoint" />
            <Array as="points">
              <mxPoint x="965" y="390" />
            </Array>
          </mxGeometry>
        </mxCell>
        <mxCell id="CIOtgsL6T6jgoitxt4nJ-31" style="edgeStyle=orthogonalEdgeStyle;rounded=0;orthogonalLoop=1;jettySize=auto;html=1;exitX=1;exitY=0.25;exitDx=0;exitDy=0;entryX=0.5;entryY=0;entryDx=0;entryDy=0;" edge="1" parent="1" source="CIOtgsL6T6jgoitxt4nJ-23" target="CIOtgsL6T6jgoitxt4nJ-30">
          <mxGeometry relative="1" as="geometry" />
        </mxCell>
        <mxCell id="CIOtgsL6T6jgoitxt4nJ-34" style="edgeStyle=orthogonalEdgeStyle;rounded=0;orthogonalLoop=1;jettySize=auto;html=1;exitX=1;exitY=0.75;exitDx=0;exitDy=0;entryX=0;entryY=0.25;entryDx=0;entryDy=0;" edge="1" parent="1" source="CIOtgsL6T6jgoitxt4nJ-23" target="CIOtgsL6T6jgoitxt4nJ-30">
          <mxGeometry relative="1" as="geometry" />
        </mxCell>
        <mxCell id="CIOtgsL6T6jgoitxt4nJ-23" value="Обсуждение идеи с преподавателем&amp;nbsp;" style="rounded=0;whiteSpace=wrap;html=1;" vertex="1" parent="1">
          <mxGeometry x="870" y="200" width="190" height="100" as="geometry" />
        </mxCell>
        <mxCell id="CIOtgsL6T6jgoitxt4nJ-25" value="Идея творческого&amp;nbsp;&lt;div&gt;проета&lt;/div&gt;" style="text;html=1;align=center;verticalAlign=middle;resizable=0;points=[];autosize=1;strokeColor=none;fillColor=none;" vertex="1" parent="1">
          <mxGeometry x="730" y="210" width="130" height="40" as="geometry" />
        </mxCell>
        <mxCell id="CIOtgsL6T6jgoitxt4nJ-27" value="" style="endArrow=none;html=1;rounded=0;" edge="1" parent="1">
          <mxGeometry width="50" height="50" relative="1" as="geometry">
            <mxPoint x="965" y="350" as="sourcePoint" />
            <mxPoint x="1070" y="350" as="targetPoint" />
          </mxGeometry>
        </mxCell>
        <mxCell id="CIOtgsL6T6jgoitxt4nJ-28" value="Разговор" style="text;html=1;align=center;verticalAlign=middle;resizable=0;points=[];autosize=1;strokeColor=none;fillColor=none;" vertex="1" parent="1">
          <mxGeometry x="970" y="360" width="70" height="30" as="geometry" />
        </mxCell>
        <mxCell id="CIOtgsL6T6jgoitxt4nJ-29" value="Преподаватель" style="text;html=1;align=center;verticalAlign=middle;resizable=0;points=[];autosize=1;strokeColor=none;fillColor=none;" vertex="1" parent="1">
          <mxGeometry x="960" y="320" width="110" height="30" as="geometry" />
        </mxCell>
        <mxCell id="CIOtgsL6T6jgoitxt4nJ-36" style="edgeStyle=orthogonalEdgeStyle;rounded=0;orthogonalLoop=1;jettySize=auto;html=1;startArrow=block;startFill=1;endArrow=none;" edge="1" parent="1" source="CIOtgsL6T6jgoitxt4nJ-30">
          <mxGeometry relative="1" as="geometry">
            <mxPoint x="1400" y="600" as="targetPoint" />
            <Array as="points">
              <mxPoint x="1330" y="600" />
            </Array>
          </mxGeometry>
        </mxCell>
        <mxCell id="CIOtgsL6T6jgoitxt4nJ-41" style="edgeStyle=orthogonalEdgeStyle;rounded=0;orthogonalLoop=1;jettySize=auto;html=1;entryX=0;entryY=0.5;entryDx=0;entryDy=0;" edge="1" parent="1" source="CIOtgsL6T6jgoitxt4nJ-30" target="CIOtgsL6T6jgoitxt4nJ-40">
          <mxGeometry relative="1" as="geometry" />
        </mxCell>
        <mxCell id="CIOtgsL6T6jgoitxt4nJ-30" value="Создание приложения&amp;nbsp;&lt;div&gt;для автоматизации учебного процесса&lt;/div&gt;" style="rounded=0;whiteSpace=wrap;html=1;" vertex="1" parent="1">
          <mxGeometry x="1230" y="368" width="200" height="110" as="geometry" />
        </mxCell>
        <mxCell id="CIOtgsL6T6jgoitxt4nJ-33" value="Сбор особенностей&lt;div&gt;реализации&lt;/div&gt;" style="text;html=1;align=center;verticalAlign=middle;resizable=0;points=[];autosize=1;strokeColor=none;fillColor=none;" vertex="1" parent="1">
          <mxGeometry x="1090" y="180" width="130" height="40" as="geometry" />
        </mxCell>
        <mxCell id="CIOtgsL6T6jgoitxt4nJ-35" value="&lt;div style=&quot;text-align: center;&quot;&gt;&lt;span style=&quot;background-color: transparent; color: light-dark(rgb(0, 0, 0), rgb(255, 255, 255));&quot;&gt;Идеи для творческого проекта&lt;/span&gt;&lt;/div&gt;" style="text;whiteSpace=wrap;html=1;fillColor=none;" vertex="1" parent="1">
          <mxGeometry x="1090" y="230" width="130" height="40" as="geometry" />
        </mxCell>
        <mxCell id="CIOtgsL6T6jgoitxt4nJ-37" value="Студент" style="text;html=1;align=center;verticalAlign=middle;resizable=0;points=[];autosize=1;strokeColor=none;fillColor=none;" vertex="1" parent="1">
          <mxGeometry x="1335" y="570" width="70" height="30" as="geometry" />
        </mxCell>
        <mxCell id="CIOtgsL6T6jgoitxt4nJ-38" value="" style="endArrow=none;html=1;rounded=0;" edge="1" parent="1">
          <mxGeometry width="50" height="50" relative="1" as="geometry">
            <mxPoint x="1330" y="550" as="sourcePoint" />
            <mxPoint x="1400" y="550" as="targetPoint" />
          </mxGeometry>
        </mxCell>
        <mxCell id="CIOtgsL6T6jgoitxt4nJ-39" value="Ноутбук" style="text;html=1;align=center;verticalAlign=middle;resizable=0;points=[];autosize=1;strokeColor=none;fillColor=none;" vertex="1" parent="1">
          <mxGeometry x="1335" y="518" width="70" height="30" as="geometry" />
        </mxCell>
        <mxCell id="CIOtgsL6T6jgoitxt4nJ-43" style="edgeStyle=orthogonalEdgeStyle;rounded=0;orthogonalLoop=1;jettySize=auto;html=1;startArrow=block;startFill=1;endArrow=none;" edge="1" parent="1" source="CIOtgsL6T6jgoitxt4nJ-40">
          <mxGeometry relative="1" as="geometry">
            <mxPoint x="1750" y="670" as="targetPoint" />
            <Array as="points">
              <mxPoint x="1675" y="670" />
            </Array>
          </mxGeometry>
        </mxCell>
        <mxCell id="CIOtgsL6T6jgoitxt4nJ-47" style="edgeStyle=orthogonalEdgeStyle;rounded=0;orthogonalLoop=1;jettySize=auto;html=1;exitX=1;exitY=0.75;exitDx=0;exitDy=0;entryX=0;entryY=0.655;entryDx=0;entryDy=0;entryPerimeter=0;" edge="1" parent="1" source="CIOtgsL6T6jgoitxt4nJ-40" target="CIOtgsL6T6jgoitxt4nJ-30">
          <mxGeometry relative="1" as="geometry">
            <mxPoint x="1840" y="590" as="targetPoint" />
            <Array as="points">
              <mxPoint x="1820" y="563" />
              <mxPoint x="1820" y="700" />
              <mxPoint x="1210" y="700" />
              <mxPoint x="1210" y="440" />
            </Array>
          </mxGeometry>
        </mxCell>
        <mxCell id="CIOtgsL6T6jgoitxt4nJ-49" style="edgeStyle=orthogonalEdgeStyle;rounded=0;orthogonalLoop=1;jettySize=auto;html=1;exitX=1;exitY=0.25;exitDx=0;exitDy=0;" edge="1" parent="1" source="CIOtgsL6T6jgoitxt4nJ-40">
          <mxGeometry relative="1" as="geometry">
            <mxPoint x="1940" y="517.4615384615385" as="targetPoint" />
          </mxGeometry>
        </mxCell>
        <mxCell id="CIOtgsL6T6jgoitxt4nJ-40" value="Тестирование приложения" style="rounded=0;whiteSpace=wrap;html=1;" vertex="1" parent="1">
          <mxGeometry x="1590" y="495" width="170" height="90" as="geometry" />
        </mxCell>
        <mxCell id="CIOtgsL6T6jgoitxt4nJ-42" value="Прототип&lt;div&gt;&amp;nbsp;приложения&lt;/div&gt;" style="text;html=1;align=center;verticalAlign=middle;resizable=0;points=[];autosize=1;strokeColor=none;fillColor=none;" vertex="1" parent="1">
          <mxGeometry x="1425" y="373" width="90" height="40" as="geometry" />
        </mxCell>
        <mxCell id="CIOtgsL6T6jgoitxt4nJ-44" value="Студенты" style="text;html=1;align=center;verticalAlign=middle;resizable=0;points=[];autosize=1;strokeColor=none;fillColor=none;" vertex="1" parent="1">
          <mxGeometry x="1680" y="640" width="80" height="30" as="geometry" />
        </mxCell>
        <mxCell id="CIOtgsL6T6jgoitxt4nJ-45" value="" style="endArrow=none;html=1;rounded=0;" edge="1" parent="1">
          <mxGeometry width="50" height="50" relative="1" as="geometry">
            <mxPoint x="1675" y="630" as="sourcePoint" />
            <mxPoint x="1750" y="630" as="targetPoint" />
          </mxGeometry>
        </mxCell>
        <mxCell id="CIOtgsL6T6jgoitxt4nJ-46" value="Преподаватели" style="text;html=1;align=center;verticalAlign=middle;resizable=0;points=[];autosize=1;strokeColor=none;fillColor=none;" vertex="1" parent="1">
          <mxGeometry x="1665" y="600" width="110" height="30" as="geometry" />
        </mxCell>
        <mxCell id="CIOtgsL6T6jgoitxt4nJ-48" value="Доработка приложения&amp;nbsp;&lt;div&gt;в зависимости&amp;nbsp;&lt;/div&gt;&lt;div&gt;от степени реализации&lt;/div&gt;" style="text;html=1;align=center;verticalAlign=middle;resizable=0;points=[];autosize=1;strokeColor=none;fillColor=none;" vertex="1" parent="1">
          <mxGeometry x="1370" y="643" width="160" height="60" as="geometry" />
        </mxCell>
        <mxCell id="CIOtgsL6T6jgoitxt4nJ-50" value="Готовый творческий проект" style="text;html=1;align=center;verticalAlign=middle;resizable=0;points=[];autosize=1;strokeColor=none;fillColor=none;" vertex="1" parent="1">
          <mxGeometry x="1760" y="488" width="180" height="30" as="geometry" />
        </mxCell>
        <mxCell id="CIOtgsL6T6jgoitxt4nJ-59" style="edgeStyle=orthogonalEdgeStyle;rounded=0;orthogonalLoop=1;jettySize=auto;html=1;entryX=0.003;entryY=0.159;entryDx=0;entryDy=0;entryPerimeter=0;" edge="1" parent="1" source="CIOtgsL6T6jgoitxt4nJ-51" target="CIOtgsL6T6jgoitxt4nJ-54">
          <mxGeometry relative="1" as="geometry">
            <Array as="points">
              <mxPoint x="2580" y="315" />
              <mxPoint x="2580" y="390" />
              <mxPoint x="2620" y="390" />
              <mxPoint x="2620" y="391" />
            </Array>
          </mxGeometry>
        </mxCell>
        <mxCell id="CIOtgsL6T6jgoitxt4nJ-60" style="edgeStyle=orthogonalEdgeStyle;rounded=0;orthogonalLoop=1;jettySize=auto;html=1;endArrow=none;endFill=1;startFill=1;startArrow=block;" edge="1" parent="1" source="CIOtgsL6T6jgoitxt4nJ-51">
          <mxGeometry relative="1" as="geometry">
            <mxPoint x="2160" y="315" as="targetPoint" />
          </mxGeometry>
        </mxCell>
        <mxCell id="CIOtgsL6T6jgoitxt4nJ-62" style="edgeStyle=orthogonalEdgeStyle;rounded=0;orthogonalLoop=1;jettySize=auto;html=1;endArrow=none;startFill=1;startArrow=block;" edge="1" parent="1" source="CIOtgsL6T6jgoitxt4nJ-51">
          <mxGeometry relative="1" as="geometry">
            <mxPoint x="2470" y="490" as="targetPoint" />
            <Array as="points">
              <mxPoint x="2395" y="490" />
            </Array>
          </mxGeometry>
        </mxCell>
        <mxCell id="CIOtgsL6T6jgoitxt4nJ-51" value="Создание окна для входа&amp;nbsp;&lt;div&gt;в приложение&lt;/div&gt;&lt;div&gt;(3 профиля)&lt;/div&gt;" style="rounded=0;whiteSpace=wrap;html=1;" vertex="1" parent="1">
          <mxGeometry x="2310" y="270" width="170" height="90" as="geometry" />
        </mxCell>
        <mxCell id="CIOtgsL6T6jgoitxt4nJ-92" style="edgeStyle=orthogonalEdgeStyle;rounded=0;orthogonalLoop=1;jettySize=auto;html=1;exitX=1;exitY=0.25;exitDx=0;exitDy=0;entryX=0;entryY=0.5;entryDx=0;entryDy=0;" edge="1" parent="1" source="CIOtgsL6T6jgoitxt4nJ-52" target="CIOtgsL6T6jgoitxt4nJ-55">
          <mxGeometry relative="1" as="geometry">
            <mxPoint x="3540" y="410" as="targetPoint" />
            <Array as="points">
              <mxPoint x="3650" y="434" />
              <mxPoint x="3650" y="554" />
            </Array>
          </mxGeometry>
        </mxCell>
        <mxCell id="CIOtgsL6T6jgoitxt4nJ-93" style="edgeStyle=orthogonalEdgeStyle;rounded=0;orthogonalLoop=1;jettySize=auto;html=1;exitX=1;exitY=0.75;exitDx=0;exitDy=0;entryX=0;entryY=0.5;entryDx=0;entryDy=0;" edge="1" parent="1" source="CIOtgsL6T6jgoitxt4nJ-52" target="CIOtgsL6T6jgoitxt4nJ-94">
          <mxGeometry relative="1" as="geometry">
            <mxPoint x="3450" y="600" as="targetPoint" />
          </mxGeometry>
        </mxCell>
        <mxCell id="CIOtgsL6T6jgoitxt4nJ-52" value="Создание групп студентов&amp;nbsp;&lt;div&gt;с помощью темпераметра&lt;/div&gt;" style="rounded=0;whiteSpace=wrap;html=1;" vertex="1" parent="1">
          <mxGeometry x="3210" y="413" width="170" height="85.5" as="geometry" />
        </mxCell>
        <mxCell id="CIOtgsL6T6jgoitxt4nJ-76" style="edgeStyle=orthogonalEdgeStyle;rounded=0;orthogonalLoop=1;jettySize=auto;html=1;exitX=1;exitY=0.75;exitDx=0;exitDy=0;entryX=0;entryY=0.5;entryDx=0;entryDy=0;" edge="1" parent="1" source="CIOtgsL6T6jgoitxt4nJ-54" target="CIOtgsL6T6jgoitxt4nJ-75">
          <mxGeometry relative="1" as="geometry">
            <Array as="points">
              <mxPoint x="2900" y="439" />
              <mxPoint x="2900" y="519" />
            </Array>
          </mxGeometry>
        </mxCell>
        <mxCell id="CIOtgsL6T6jgoitxt4nJ-85" style="edgeStyle=orthogonalEdgeStyle;rounded=0;orthogonalLoop=1;jettySize=auto;html=1;exitX=1;exitY=0.25;exitDx=0;exitDy=0;entryX=0;entryY=0.5;entryDx=0;entryDy=0;" edge="1" parent="1" source="CIOtgsL6T6jgoitxt4nJ-54" target="CIOtgsL6T6jgoitxt4nJ-52">
          <mxGeometry relative="1" as="geometry">
            <mxPoint x="2910" y="380" as="targetPoint" />
          </mxGeometry>
        </mxCell>
        <mxCell id="CIOtgsL6T6jgoitxt4nJ-54" value="Создание системы&amp;nbsp;&lt;div&gt;для определения лидера&lt;/div&gt;" style="rounded=0;whiteSpace=wrap;html=1;" vertex="1" parent="1">
          <mxGeometry x="2620" y="370" width="150" height="89" as="geometry" />
        </mxCell>
        <mxCell id="CIOtgsL6T6jgoitxt4nJ-120" style="edgeStyle=orthogonalEdgeStyle;rounded=0;orthogonalLoop=1;jettySize=auto;html=1;endArrow=none;endFill=1;startFill=1;startArrow=block;" edge="1" parent="1" source="CIOtgsL6T6jgoitxt4nJ-55">
          <mxGeometry relative="1" as="geometry">
            <mxPoint x="3770" y="440" as="targetPoint" />
            <Array as="points">
              <mxPoint x="3835" y="440" />
              <mxPoint x="3780" y="440" />
            </Array>
          </mxGeometry>
        </mxCell>
        <mxCell id="CIOtgsL6T6jgoitxt4nJ-123" value="" style="edgeStyle=orthogonalEdgeStyle;rounded=0;orthogonalLoop=1;jettySize=auto;html=1;" edge="1" parent="1" source="CIOtgsL6T6jgoitxt4nJ-55" target="CIOtgsL6T6jgoitxt4nJ-122">
          <mxGeometry relative="1" as="geometry" />
        </mxCell>
        <mxCell id="CIOtgsL6T6jgoitxt4nJ-55" value="Создание системы для&lt;div&gt;отслеживания успеваемости студентов&lt;/div&gt;" style="rounded=0;whiteSpace=wrap;html=1;" vertex="1" parent="1">
          <mxGeometry x="3760" y="512.5" width="150" height="84" as="geometry" />
        </mxCell>
        <mxCell id="CIOtgsL6T6jgoitxt4nJ-129" style="edgeStyle=orthogonalEdgeStyle;rounded=0;orthogonalLoop=1;jettySize=auto;html=1;exitX=1;exitY=0.25;exitDx=0;exitDy=0;entryX=0;entryY=0.75;entryDx=0;entryDy=0;" edge="1" parent="1" source="CIOtgsL6T6jgoitxt4nJ-56" target="CIOtgsL6T6jgoitxt4nJ-51">
          <mxGeometry relative="1" as="geometry">
            <Array as="points">
              <mxPoint x="4920" y="713" />
              <mxPoint x="4920" y="930" />
              <mxPoint x="2290" y="930" />
              <mxPoint x="2290" y="337" />
            </Array>
          </mxGeometry>
        </mxCell>
        <mxCell id="CIOtgsL6T6jgoitxt4nJ-151" style="edgeStyle=orthogonalEdgeStyle;rounded=0;orthogonalLoop=1;jettySize=auto;html=1;entryX=-0.001;entryY=0.711;entryDx=0;entryDy=0;entryPerimeter=0;" edge="1" parent="1" source="CIOtgsL6T6jgoitxt4nJ-56" target="CIOtgsL6T6jgoitxt4nJ-122">
          <mxGeometry relative="1" as="geometry">
            <Array as="points">
              <mxPoint x="4900" y="732" />
              <mxPoint x="4900" y="910" />
              <mxPoint x="4040" y="910" />
              <mxPoint x="4040" y="630" />
              <mxPoint x="4110" y="630" />
            </Array>
          </mxGeometry>
        </mxCell>
        <mxCell id="CIOtgsL6T6jgoitxt4nJ-56" value="Создание системы для отправки файлов по email" style="rounded=0;whiteSpace=wrap;html=1;" vertex="1" parent="1">
          <mxGeometry x="4720" y="694.5" width="150" height="74" as="geometry" />
        </mxCell>
        <mxCell id="CIOtgsL6T6jgoitxt4nJ-58" value="Прототип&amp;nbsp;&lt;div&gt;приложения&lt;/div&gt;" style="text;html=1;align=center;verticalAlign=middle;resizable=0;points=[];autosize=1;strokeColor=none;fillColor=none;" vertex="1" parent="1">
          <mxGeometry x="4310" y="534.5" width="90" height="40" as="geometry" />
        </mxCell>
        <mxCell id="CIOtgsL6T6jgoitxt4nJ-61" value="Идея творческого&lt;div&gt;проекта&lt;/div&gt;" style="text;html=1;align=center;verticalAlign=middle;resizable=0;points=[];autosize=1;strokeColor=none;fillColor=none;" vertex="1" parent="1">
          <mxGeometry x="2180" y="273" width="120" height="40" as="geometry" />
        </mxCell>
        <mxCell id="CIOtgsL6T6jgoitxt4nJ-63" value="Студент" style="text;html=1;align=center;verticalAlign=middle;resizable=0;points=[];autosize=1;strokeColor=none;fillColor=none;" vertex="1" parent="1">
          <mxGeometry x="2400" y="458" width="70" height="30" as="geometry" />
        </mxCell>
        <mxCell id="CIOtgsL6T6jgoitxt4nJ-64" value="" style="endArrow=none;html=1;rounded=0;" edge="1" parent="1">
          <mxGeometry width="50" height="50" relative="1" as="geometry">
            <mxPoint x="2395" y="440" as="sourcePoint" />
            <mxPoint x="2470" y="440" as="targetPoint" />
          </mxGeometry>
        </mxCell>
        <mxCell id="CIOtgsL6T6jgoitxt4nJ-65" value="Ноутбук" style="text;html=1;align=center;verticalAlign=middle;resizable=0;points=[];autosize=1;strokeColor=none;fillColor=none;" vertex="1" parent="1">
          <mxGeometry x="2395" y="408" width="70" height="30" as="geometry" />
        </mxCell>
        <mxCell id="CIOtgsL6T6jgoitxt4nJ-66" value="Готовый&amp;nbsp;&lt;div&gt;вход в приложение&lt;/div&gt;" style="text;html=1;align=center;verticalAlign=middle;resizable=0;points=[];autosize=1;strokeColor=none;fillColor=none;" vertex="1" parent="1">
          <mxGeometry x="2480" y="273" width="130" height="40" as="geometry" />
        </mxCell>
        <mxCell id="CIOtgsL6T6jgoitxt4nJ-67" style="edgeStyle=orthogonalEdgeStyle;rounded=0;orthogonalLoop=1;jettySize=auto;html=1;endArrow=none;startFill=1;startArrow=block;" edge="1" parent="1">
          <mxGeometry relative="1" as="geometry">
            <mxPoint x="2770" y="588" as="targetPoint" />
            <mxPoint x="2695" y="458" as="sourcePoint" />
            <Array as="points">
              <mxPoint x="2695" y="588" />
            </Array>
          </mxGeometry>
        </mxCell>
        <mxCell id="CIOtgsL6T6jgoitxt4nJ-68" value="Студент" style="text;html=1;align=center;verticalAlign=middle;resizable=0;points=[];autosize=1;strokeColor=none;fillColor=none;" vertex="1" parent="1">
          <mxGeometry x="2700" y="556" width="70" height="30" as="geometry" />
        </mxCell>
        <mxCell id="CIOtgsL6T6jgoitxt4nJ-69" value="" style="endArrow=none;html=1;rounded=0;" edge="1" parent="1">
          <mxGeometry width="50" height="50" relative="1" as="geometry">
            <mxPoint x="2695" y="538" as="sourcePoint" />
            <mxPoint x="2770" y="538" as="targetPoint" />
          </mxGeometry>
        </mxCell>
        <mxCell id="CIOtgsL6T6jgoitxt4nJ-70" value="Ноутбук" style="text;html=1;align=center;verticalAlign=middle;resizable=0;points=[];autosize=1;strokeColor=none;fillColor=none;" vertex="1" parent="1">
          <mxGeometry x="2695" y="506" width="70" height="30" as="geometry" />
        </mxCell>
        <mxCell id="CIOtgsL6T6jgoitxt4nJ-74" value="Потребность&lt;div&gt;в определении лидера&lt;/div&gt;" style="text;html=1;align=center;verticalAlign=middle;resizable=0;points=[];autosize=1;strokeColor=none;fillColor=none;" vertex="1" parent="1">
          <mxGeometry x="2780" y="398" width="150" height="40" as="geometry" />
        </mxCell>
        <mxCell id="CIOtgsL6T6jgoitxt4nJ-83" style="edgeStyle=orthogonalEdgeStyle;rounded=0;orthogonalLoop=1;jettySize=auto;html=1;entryX=0;entryY=0.75;entryDx=0;entryDy=0;" edge="1" parent="1" source="CIOtgsL6T6jgoitxt4nJ-75" target="CIOtgsL6T6jgoitxt4nJ-54">
          <mxGeometry relative="1" as="geometry">
            <Array as="points">
              <mxPoint x="3130" y="519" />
              <mxPoint x="3130" y="710" />
              <mxPoint x="2600" y="710" />
              <mxPoint x="2600" y="438" />
            </Array>
          </mxGeometry>
        </mxCell>
        <mxCell id="CIOtgsL6T6jgoitxt4nJ-75" value="Создание опроса&lt;div&gt;для определения лидера&lt;/div&gt;" style="rounded=0;whiteSpace=wrap;html=1;" vertex="1" parent="1">
          <mxGeometry x="2940" y="478" width="150" height="82" as="geometry" />
        </mxCell>
        <mxCell id="CIOtgsL6T6jgoitxt4nJ-77" style="edgeStyle=orthogonalEdgeStyle;rounded=0;orthogonalLoop=1;jettySize=auto;html=1;endArrow=none;startFill=1;startArrow=block;" edge="1" parent="1">
          <mxGeometry relative="1" as="geometry">
            <mxPoint x="3090" y="680" as="targetPoint" />
            <mxPoint x="3015" y="560" as="sourcePoint" />
            <Array as="points">
              <mxPoint x="3015" y="680" />
              <mxPoint x="3090" y="680" />
            </Array>
          </mxGeometry>
        </mxCell>
        <mxCell id="CIOtgsL6T6jgoitxt4nJ-78" value="Студент" style="text;html=1;align=center;verticalAlign=middle;resizable=0;points=[];autosize=1;strokeColor=none;fillColor=none;" vertex="1" parent="1">
          <mxGeometry x="3020" y="643" width="70" height="30" as="geometry" />
        </mxCell>
        <mxCell id="CIOtgsL6T6jgoitxt4nJ-79" value="" style="endArrow=none;html=1;rounded=0;" edge="1" parent="1">
          <mxGeometry width="50" height="50" relative="1" as="geometry">
            <mxPoint x="3015" y="640" as="sourcePoint" />
            <mxPoint x="3090" y="640" as="targetPoint" />
          </mxGeometry>
        </mxCell>
        <mxCell id="CIOtgsL6T6jgoitxt4nJ-80" value="Ноутбук" style="text;html=1;align=center;verticalAlign=middle;resizable=0;points=[];autosize=1;strokeColor=none;fillColor=none;" vertex="1" parent="1">
          <mxGeometry x="3015" y="608" width="70" height="30" as="geometry" />
        </mxCell>
        <mxCell id="CIOtgsL6T6jgoitxt4nJ-81" value="" style="endArrow=none;html=1;rounded=0;" edge="1" parent="1">
          <mxGeometry width="50" height="50" relative="1" as="geometry">
            <mxPoint x="3015" y="600" as="sourcePoint" />
            <mxPoint x="3090" y="600" as="targetPoint" />
          </mxGeometry>
        </mxCell>
        <mxCell id="CIOtgsL6T6jgoitxt4nJ-82" value="Интернет" style="text;html=1;align=center;verticalAlign=middle;resizable=0;points=[];autosize=1;strokeColor=none;fillColor=none;" vertex="1" parent="1">
          <mxGeometry x="3010" y="566.5" width="80" height="30" as="geometry" />
        </mxCell>
        <mxCell id="CIOtgsL6T6jgoitxt4nJ-84" value="Готовый опрос" style="text;html=1;align=center;verticalAlign=middle;resizable=0;points=[];autosize=1;strokeColor=none;fillColor=none;" vertex="1" parent="1">
          <mxGeometry x="2805" y="673" width="110" height="30" as="geometry" />
        </mxCell>
        <mxCell id="CIOtgsL6T6jgoitxt4nJ-86" value="Программа по&amp;nbsp;&lt;div&gt;определению&amp;nbsp;&lt;/div&gt;&lt;div&gt;лидеров&lt;/div&gt;" style="text;html=1;align=center;verticalAlign=middle;resizable=0;points=[];autosize=1;strokeColor=none;fillColor=none;" vertex="1" parent="1">
          <mxGeometry x="2770" y="338" width="110" height="60" as="geometry" />
        </mxCell>
        <mxCell id="CIOtgsL6T6jgoitxt4nJ-87" style="edgeStyle=orthogonalEdgeStyle;rounded=0;orthogonalLoop=1;jettySize=auto;html=1;endArrow=none;startFill=1;startArrow=block;" edge="1" parent="1">
          <mxGeometry relative="1" as="geometry">
            <mxPoint x="3375" y="628.5" as="targetPoint" />
            <mxPoint x="3300" y="498.5" as="sourcePoint" />
            <Array as="points">
              <mxPoint x="3300" y="628.5" />
            </Array>
          </mxGeometry>
        </mxCell>
        <mxCell id="CIOtgsL6T6jgoitxt4nJ-88" value="Студент" style="text;html=1;align=center;verticalAlign=middle;resizable=0;points=[];autosize=1;strokeColor=none;fillColor=none;" vertex="1" parent="1">
          <mxGeometry x="3305" y="596.5" width="70" height="30" as="geometry" />
        </mxCell>
        <mxCell id="CIOtgsL6T6jgoitxt4nJ-89" value="" style="endArrow=none;html=1;rounded=0;" edge="1" parent="1">
          <mxGeometry width="50" height="50" relative="1" as="geometry">
            <mxPoint x="3300" y="578.5" as="sourcePoint" />
            <mxPoint x="3375" y="578.5" as="targetPoint" />
          </mxGeometry>
        </mxCell>
        <mxCell id="CIOtgsL6T6jgoitxt4nJ-90" value="Ноутбук" style="text;html=1;align=center;verticalAlign=middle;resizable=0;points=[];autosize=1;strokeColor=none;fillColor=none;" vertex="1" parent="1">
          <mxGeometry x="3300" y="546.5" width="70" height="30" as="geometry" />
        </mxCell>
        <mxCell id="CIOtgsL6T6jgoitxt4nJ-102" style="edgeStyle=orthogonalEdgeStyle;rounded=0;orthogonalLoop=1;jettySize=auto;html=1;entryX=0;entryY=0.75;entryDx=0;entryDy=0;" edge="1" parent="1" source="CIOtgsL6T6jgoitxt4nJ-94" target="CIOtgsL6T6jgoitxt4nJ-52">
          <mxGeometry relative="1" as="geometry">
            <Array as="points">
              <mxPoint x="3660" y="600" />
              <mxPoint x="3660" y="770" />
              <mxPoint x="3190" y="770" />
              <mxPoint x="3190" y="477" />
            </Array>
          </mxGeometry>
        </mxCell>
        <mxCell id="CIOtgsL6T6jgoitxt4nJ-94" value="Создание опроса&lt;div&gt;для определение темпераметра&lt;/div&gt;" style="rounded=0;whiteSpace=wrap;html=1;" vertex="1" parent="1">
          <mxGeometry x="3490" y="570" width="120" height="60" as="geometry" />
        </mxCell>
        <mxCell id="CIOtgsL6T6jgoitxt4nJ-95" value="Нужно определять&lt;div&gt;темперамент&lt;/div&gt;" style="text;html=1;align=center;verticalAlign=middle;resizable=0;points=[];autosize=1;strokeColor=none;fillColor=none;" vertex="1" parent="1">
          <mxGeometry x="3370" y="438" width="130" height="40" as="geometry" />
        </mxCell>
        <mxCell id="CIOtgsL6T6jgoitxt4nJ-96" style="edgeStyle=orthogonalEdgeStyle;rounded=0;orthogonalLoop=1;jettySize=auto;html=1;endArrow=none;startFill=1;startArrow=block;" edge="1" parent="1">
          <mxGeometry relative="1" as="geometry">
            <mxPoint x="3620" y="748" as="targetPoint" />
            <mxPoint x="3545" y="628" as="sourcePoint" />
            <Array as="points">
              <mxPoint x="3545" y="748" />
              <mxPoint x="3620" y="748" />
            </Array>
          </mxGeometry>
        </mxCell>
        <mxCell id="CIOtgsL6T6jgoitxt4nJ-97" value="Студент" style="text;html=1;align=center;verticalAlign=middle;resizable=0;points=[];autosize=1;strokeColor=none;fillColor=none;" vertex="1" parent="1">
          <mxGeometry x="3550" y="711" width="70" height="30" as="geometry" />
        </mxCell>
        <mxCell id="CIOtgsL6T6jgoitxt4nJ-98" value="" style="endArrow=none;html=1;rounded=0;" edge="1" parent="1">
          <mxGeometry width="50" height="50" relative="1" as="geometry">
            <mxPoint x="3545" y="708" as="sourcePoint" />
            <mxPoint x="3620" y="708" as="targetPoint" />
          </mxGeometry>
        </mxCell>
        <mxCell id="CIOtgsL6T6jgoitxt4nJ-99" value="Ноутбук" style="text;html=1;align=center;verticalAlign=middle;resizable=0;points=[];autosize=1;strokeColor=none;fillColor=none;" vertex="1" parent="1">
          <mxGeometry x="3545" y="676" width="70" height="30" as="geometry" />
        </mxCell>
        <mxCell id="CIOtgsL6T6jgoitxt4nJ-100" value="" style="endArrow=none;html=1;rounded=0;" edge="1" parent="1">
          <mxGeometry width="50" height="50" relative="1" as="geometry">
            <mxPoint x="3545" y="668" as="sourcePoint" />
            <mxPoint x="3620" y="668" as="targetPoint" />
          </mxGeometry>
        </mxCell>
        <mxCell id="CIOtgsL6T6jgoitxt4nJ-101" value="Интернет" style="text;html=1;align=center;verticalAlign=middle;resizable=0;points=[];autosize=1;strokeColor=none;fillColor=none;" vertex="1" parent="1">
          <mxGeometry x="3540" y="634.5" width="80" height="30" as="geometry" />
        </mxCell>
        <mxCell id="CIOtgsL6T6jgoitxt4nJ-104" value="Готовый опрос" style="text;html=1;align=center;verticalAlign=middle;resizable=0;points=[];autosize=1;strokeColor=none;fillColor=none;" vertex="1" parent="1">
          <mxGeometry x="3315" y="738" width="110" height="30" as="geometry" />
        </mxCell>
        <mxCell id="CIOtgsL6T6jgoitxt4nJ-105" value="Программа которая&amp;nbsp;&lt;div&gt;может работать со студентами&lt;/div&gt;&lt;div&gt;и лидерами&lt;/div&gt;" style="text;html=1;align=center;verticalAlign=middle;resizable=0;points=[];autosize=1;strokeColor=none;fillColor=none;" vertex="1" parent="1">
          <mxGeometry x="3375" y="378" width="200" height="60" as="geometry" />
        </mxCell>
        <mxCell id="CIOtgsL6T6jgoitxt4nJ-116" style="edgeStyle=orthogonalEdgeStyle;rounded=0;orthogonalLoop=1;jettySize=auto;html=1;endArrow=none;startFill=1;startArrow=block;" edge="1" parent="1">
          <mxGeometry relative="1" as="geometry">
            <mxPoint x="3910" y="726.5" as="targetPoint" />
            <mxPoint x="3835" y="596.5" as="sourcePoint" />
            <Array as="points">
              <mxPoint x="3835" y="726.5" />
            </Array>
          </mxGeometry>
        </mxCell>
        <mxCell id="CIOtgsL6T6jgoitxt4nJ-117" value="Студент" style="text;html=1;align=center;verticalAlign=middle;resizable=0;points=[];autosize=1;strokeColor=none;fillColor=none;" vertex="1" parent="1">
          <mxGeometry x="3840" y="694.5" width="70" height="30" as="geometry" />
        </mxCell>
        <mxCell id="CIOtgsL6T6jgoitxt4nJ-118" value="" style="endArrow=none;html=1;rounded=0;" edge="1" parent="1">
          <mxGeometry width="50" height="50" relative="1" as="geometry">
            <mxPoint x="3835" y="676.5" as="sourcePoint" />
            <mxPoint x="3910" y="676.5" as="targetPoint" />
          </mxGeometry>
        </mxCell>
        <mxCell id="CIOtgsL6T6jgoitxt4nJ-119" value="Ноутбук" style="text;html=1;align=center;verticalAlign=middle;resizable=0;points=[];autosize=1;strokeColor=none;fillColor=none;" vertex="1" parent="1">
          <mxGeometry x="3835" y="644.5" width="70" height="30" as="geometry" />
        </mxCell>
        <mxCell id="CIOtgsL6T6jgoitxt4nJ-121" value="Критерии&amp;nbsp;&lt;div&gt;оценивания&lt;/div&gt;" style="text;html=1;align=center;verticalAlign=middle;resizable=0;points=[];autosize=1;strokeColor=none;fillColor=none;" vertex="1" parent="1">
          <mxGeometry x="3760" y="403" width="90" height="40" as="geometry" />
        </mxCell>
        <mxCell id="CIOtgsL6T6jgoitxt4nJ-124" style="edgeStyle=orthogonalEdgeStyle;rounded=0;orthogonalLoop=1;jettySize=auto;html=1;exitX=0.994;exitY=0.092;exitDx=0;exitDy=0;exitPerimeter=0;" edge="1" parent="1" source="CIOtgsL6T6jgoitxt4nJ-122">
          <mxGeometry relative="1" as="geometry">
            <mxPoint x="4510" y="585" as="targetPoint" />
            <Array as="points">
              <mxPoint x="4480" y="585" />
            </Array>
          </mxGeometry>
        </mxCell>
        <mxCell id="CIOtgsL6T6jgoitxt4nJ-126" style="edgeStyle=orthogonalEdgeStyle;rounded=0;orthogonalLoop=1;jettySize=auto;html=1;exitX=1;exitY=0.75;exitDx=0;exitDy=0;entryX=0;entryY=0.25;entryDx=0;entryDy=0;" edge="1" parent="1" source="CIOtgsL6T6jgoitxt4nJ-122" target="CIOtgsL6T6jgoitxt4nJ-56">
          <mxGeometry relative="1" as="geometry">
            <Array as="points">
              <mxPoint x="4240" y="630" />
              <mxPoint x="4690" y="630" />
              <mxPoint x="4690" y="713" />
            </Array>
          </mxGeometry>
        </mxCell>
        <mxCell id="CIOtgsL6T6jgoitxt4nJ-135" style="edgeStyle=orthogonalEdgeStyle;rounded=0;orthogonalLoop=1;jettySize=auto;html=1;exitX=1;exitY=0.75;exitDx=0;exitDy=0;entryX=0;entryY=0.25;entryDx=0;entryDy=0;" edge="1" parent="1" source="CIOtgsL6T6jgoitxt4nJ-122" target="CIOtgsL6T6jgoitxt4nJ-137">
          <mxGeometry relative="1" as="geometry">
            <mxPoint x="4260" y="709.9999999999999" as="targetPoint" />
            <Array as="points">
              <mxPoint x="4240" y="640" />
              <mxPoint x="4260" y="640" />
              <mxPoint x="4260" y="711" />
            </Array>
          </mxGeometry>
        </mxCell>
        <mxCell id="CIOtgsL6T6jgoitxt4nJ-122" value="Создание окна преподавателя" style="whiteSpace=wrap;html=1;rounded=0;" vertex="1" parent="1">
          <mxGeometry x="4110" y="578.5" width="130" height="73" as="geometry" />
        </mxCell>
        <mxCell id="CIOtgsL6T6jgoitxt4nJ-127" value="Нужно отправлять&lt;div&gt;файлы&lt;/div&gt;" style="text;html=1;align=center;verticalAlign=middle;resizable=0;points=[];autosize=1;strokeColor=none;fillColor=none;" vertex="1" parent="1">
          <mxGeometry x="4230" y="591.5" width="130" height="40" as="geometry" />
        </mxCell>
        <mxCell id="CIOtgsL6T6jgoitxt4nJ-130" value="Получение email" style="text;html=1;align=center;verticalAlign=middle;resizable=0;points=[];autosize=1;strokeColor=none;fillColor=none;" vertex="1" parent="1">
          <mxGeometry x="3930" y="880" width="120" height="30" as="geometry" />
        </mxCell>
        <mxCell id="CIOtgsL6T6jgoitxt4nJ-131" style="edgeStyle=orthogonalEdgeStyle;rounded=0;orthogonalLoop=1;jettySize=auto;html=1;endArrow=none;startFill=1;startArrow=block;entryX=1.043;entryY=1.003;entryDx=0;entryDy=0;entryPerimeter=0;" edge="1" parent="1" target="CIOtgsL6T6jgoitxt4nJ-132">
          <mxGeometry relative="1" as="geometry">
            <mxPoint x="4855" y="898" as="targetPoint" />
            <mxPoint x="4780" y="768" as="sourcePoint" />
            <Array as="points">
              <mxPoint x="4780" y="850" />
            </Array>
          </mxGeometry>
        </mxCell>
        <mxCell id="CIOtgsL6T6jgoitxt4nJ-132" value="Студент" style="text;html=1;align=center;verticalAlign=middle;resizable=0;points=[];autosize=1;strokeColor=none;fillColor=none;" vertex="1" parent="1">
          <mxGeometry x="4780" y="820" width="70" height="30" as="geometry" />
        </mxCell>
        <mxCell id="CIOtgsL6T6jgoitxt4nJ-133" value="" style="endArrow=none;html=1;rounded=0;" edge="1" parent="1">
          <mxGeometry width="50" height="50" relative="1" as="geometry">
            <mxPoint x="4780" y="820" as="sourcePoint" />
            <mxPoint x="4855" y="820" as="targetPoint" />
          </mxGeometry>
        </mxCell>
        <mxCell id="CIOtgsL6T6jgoitxt4nJ-134" value="Ноутбук" style="text;html=1;align=center;verticalAlign=middle;resizable=0;points=[];autosize=1;strokeColor=none;fillColor=none;" vertex="1" parent="1">
          <mxGeometry x="4780" y="790" width="70" height="30" as="geometry" />
        </mxCell>
        <mxCell id="CIOtgsL6T6jgoitxt4nJ-136" value="Нужно наглядно&lt;div&gt;определять успеваемость&lt;/div&gt;" style="text;html=1;align=center;verticalAlign=middle;resizable=0;points=[];autosize=1;strokeColor=none;fillColor=none;" vertex="1" parent="1">
          <mxGeometry x="4090" y="651.5" width="170" height="40" as="geometry" />
        </mxCell>
        <mxCell id="CIOtgsL6T6jgoitxt4nJ-142" style="edgeStyle=orthogonalEdgeStyle;rounded=0;orthogonalLoop=1;jettySize=auto;html=1;endArrow=none;endFill=1;startFill=1;startArrow=block;exitX=0.5;exitY=0;exitDx=0;exitDy=0;" edge="1" parent="1" source="CIOtgsL6T6jgoitxt4nJ-137">
          <mxGeometry relative="1" as="geometry">
            <mxPoint x="4290" y="670" as="targetPoint" />
            <Array as="points">
              <mxPoint x="4360" y="670" />
            </Array>
          </mxGeometry>
        </mxCell>
        <mxCell id="CIOtgsL6T6jgoitxt4nJ-137" value="Система построения графиков" style="rounded=0;whiteSpace=wrap;html=1;" vertex="1" parent="1">
          <mxGeometry x="4300" y="696" width="120" height="60" as="geometry" />
        </mxCell>
        <mxCell id="CIOtgsL6T6jgoitxt4nJ-139" value="" style="endArrow=none;html=1;rounded=0;" edge="1" parent="1">
          <mxGeometry width="50" height="50" relative="1" as="geometry">
            <mxPoint x="4850" y="880" as="sourcePoint" />
            <mxPoint x="4780" y="850" as="targetPoint" />
            <Array as="points">
              <mxPoint x="4780" y="880" />
            </Array>
          </mxGeometry>
        </mxCell>
        <mxCell id="CIOtgsL6T6jgoitxt4nJ-140" value="Доп. бибилиотека" style="text;html=1;align=center;verticalAlign=middle;resizable=0;points=[];autosize=1;strokeColor=none;fillColor=none;" vertex="1" parent="1">
          <mxGeometry x="4780" y="850" width="120" height="30" as="geometry" />
        </mxCell>
        <mxCell id="CIOtgsL6T6jgoitxt4nJ-143" value="На основе проверочных&lt;div&gt;работ&lt;/div&gt;" style="text;html=1;align=center;verticalAlign=middle;resizable=0;points=[];autosize=1;strokeColor=none;fillColor=none;" vertex="1" parent="1">
          <mxGeometry x="4260" y="634.5" width="160" height="40" as="geometry" />
        </mxCell>
        <mxCell id="CIOtgsL6T6jgoitxt4nJ-144" style="edgeStyle=orthogonalEdgeStyle;rounded=0;orthogonalLoop=1;jettySize=auto;html=1;endArrow=none;startFill=1;startArrow=block;entryX=1.043;entryY=1.003;entryDx=0;entryDy=0;entryPerimeter=0;" edge="1" parent="1" target="CIOtgsL6T6jgoitxt4nJ-145">
          <mxGeometry relative="1" as="geometry">
            <mxPoint x="4435" y="886" as="targetPoint" />
            <mxPoint x="4360" y="756" as="sourcePoint" />
            <Array as="points">
              <mxPoint x="4360" y="838" />
            </Array>
          </mxGeometry>
        </mxCell>
        <mxCell id="CIOtgsL6T6jgoitxt4nJ-145" value="Студент" style="text;html=1;align=center;verticalAlign=middle;resizable=0;points=[];autosize=1;strokeColor=none;fillColor=none;" vertex="1" parent="1">
          <mxGeometry x="4360" y="808" width="70" height="30" as="geometry" />
        </mxCell>
        <mxCell id="CIOtgsL6T6jgoitxt4nJ-146" value="" style="endArrow=none;html=1;rounded=0;" edge="1" parent="1">
          <mxGeometry width="50" height="50" relative="1" as="geometry">
            <mxPoint x="4360" y="808" as="sourcePoint" />
            <mxPoint x="4435" y="808" as="targetPoint" />
          </mxGeometry>
        </mxCell>
        <mxCell id="CIOtgsL6T6jgoitxt4nJ-147" value="Ноутбук" style="text;html=1;align=center;verticalAlign=middle;resizable=0;points=[];autosize=1;strokeColor=none;fillColor=none;" vertex="1" parent="1">
          <mxGeometry x="4360" y="778" width="70" height="30" as="geometry" />
        </mxCell>
        <mxCell id="CIOtgsL6T6jgoitxt4nJ-148" value="" style="endArrow=none;html=1;rounded=0;" edge="1" parent="1">
          <mxGeometry width="50" height="50" relative="1" as="geometry">
            <mxPoint x="4430" y="868" as="sourcePoint" />
            <mxPoint x="4360" y="838" as="targetPoint" />
            <Array as="points">
              <mxPoint x="4360" y="868" />
            </Array>
          </mxGeometry>
        </mxCell>
        <mxCell id="CIOtgsL6T6jgoitxt4nJ-149" value="Доп. бибилиотека" style="text;html=1;align=center;verticalAlign=middle;resizable=0;points=[];autosize=1;strokeColor=none;fillColor=none;" vertex="1" parent="1">
          <mxGeometry x="4360" y="838" width="120" height="30" as="geometry" />
        </mxCell>
        <mxCell id="CIOtgsL6T6jgoitxt4nJ-152" value="Готовая система" style="text;html=1;align=center;verticalAlign=middle;resizable=0;points=[];autosize=1;strokeColor=none;fillColor=none;" vertex="1" parent="1">
          <mxGeometry x="4530" y="878" width="120" height="30" as="geometry" />
        </mxCell>
        <mxCell id="CIOtgsL6T6jgoitxt4nJ-153" style="edgeStyle=orthogonalEdgeStyle;rounded=0;orthogonalLoop=1;jettySize=auto;html=1;entryX=0;entryY=0.842;entryDx=0;entryDy=0;entryPerimeter=0;" edge="1" parent="1" source="CIOtgsL6T6jgoitxt4nJ-137" target="CIOtgsL6T6jgoitxt4nJ-122">
          <mxGeometry relative="1" as="geometry">
            <Array as="points">
              <mxPoint x="4500" y="726" />
              <mxPoint x="4500" y="890" />
              <mxPoint x="4050" y="890" />
              <mxPoint x="4050" y="640" />
            </Array>
          </mxGeometry>
        </mxCell>
        <mxCell id="CIOtgsL6T6jgoitxt4nJ-154" value="Готовая система" style="text;html=1;align=center;verticalAlign=middle;resizable=0;points=[];autosize=1;strokeColor=none;fillColor=none;" vertex="1" parent="1">
          <mxGeometry x="4120" y="858" width="120" height="30" as="geometry" />
        </mxCell>
      </root>
    </mxGraphModel>
  </diagram>
</mxfile>
